<svg class="svg-icon" style="width: 1em; height: 1em;vertical-align: middle;fill: currentColor;overflow: hidden;" viewBox="0 0 1024 1024" version="1.1" xmlns="http://www.w3.org/2000/svg"><path d="M202.323497 553.760103l-3.599991 20.630876 108.957551 0 4.835122-20.630876L202.323497 553.760103 202.323497 553.760103zM479.605707 574.390979l3.601015-20.630876L359.687524 553.760103l-4.836145 20.630876L479.605707 574.390979 479.605707 574.390979zM548.588825 470.269573l-16.97972 83.489506-4.834098 20.630876-16.922415 83.597977-47.225581 0L337.931011 657.987932l-3.602038 19.340487 200.933335 0 26.653033-123.56934 16.921391-83.489506 47.222511 0 193.740516 0-18.160615 83.489506-192.553481 0-43.519166 207.062939-47.27777 0L316.116169 760.822019l-3.601015 19.447934 279.644001 0 26.646893-122.282021 16.926508-83.597977 48.461735 0 113.788579 0-16.975627 83.597977-114.974591 0-25.465998 122.282021-18.161638 83.490529-47.169299 0L247.077793 863.760482l43.624567-205.771527-110.138446 0-47.279816 0 18.162662-83.597977 3.651157-20.630876 18.159592-83.489506 47.226604 0L329.439616 470.270597l43.62559-205.826785 47.226604 0 124.644835 0 21.813818-104.069217 14.505365 0 303.876915 0-18.161638 83.545788L595.816452 243.920382l-3.65525 20.523429-16.922415 83.599-48.461735 0-123.461893 0-4.836145 19.339464 202.172559 0 3.599991-19.339464 18.156522-83.599 47.226604 0 193.738469 0-18.161638 83.599-192.499246 0-21.812795 102.884228-47.225581 0L381.499295 450.927039l-4.834098 19.343557 124.697023 0L548.588825 470.270597 548.588825 470.269573z"  /></svg>